<?xml version="1.0" encoding="utf-8"?>
<!-- Generator: Adobe Illustrator 19.2.0, SVG Export Plug-In . SVG Version: 6.00 Build 0)  -->
<svg version="1.1" id="Layer_1" xmlns="http://www.w3.org/2000/svg" xmlns:xlink="http://www.w3.org/1999/xlink" x="0px" y="0px"
	 viewBox="0 0 755 205" style="enable-background:new 0 0 755 205;" xml:space="preserve">
<style type="text/css">
	.st0{fill:#428BCA;}
	.st1{fill:#FFFFFF;}
	.st2{fill:#2D2D2D;}
	.st3{fill:#4C4C4C;stroke:#4C4C4C;stroke-width:1.5;stroke-miterlimit:10;}
	.st4{fill:#FFFFFF;stroke:#FFFFFF;stroke-width:3;stroke-miterlimit:10;}
</style>
<polygon class="st0" points="154.2,163.4 16,179.5 5.7,3.6 167.5,32.1 "/>
<g>
	<path class="st1" d="M150.5,120.3l0.2,0.5c0.2,13.2-4,23.9-12.8,32.1c-8.8,8.2-20.7,12.4-35.7,12.4c-15.2,0-27.5-5.1-37-15.3
		S51,126.8,51,110.9V86.1C51,70.3,55.7,57.2,65,47c9.4-10.3,21.6-15.4,36.6-15.4c15.4,0,27.5,4,36.3,12.1
		c8.8,8.1,13.1,18.9,12.9,32.6l-0.2,0.5h-21c0-8.8-2.4-15.6-7.1-20.5c-4.7-4.9-11.7-7.3-20.9-7.3c-8.9,0-15.9,3.5-21.1,10.5
		c-5.2,7-7.8,15.8-7.8,26.4v24.9c0,10.7,2.7,19.6,8,26.6c5.3,7,12.5,10.5,21.6,10.5c9,0,15.8-2.4,20.5-7.2c4.6-4.8,7-11.6,7-20.4
		L150.5,120.3L150.5,120.3z"/>
	<path class="st2" d="M273.5,163.5h-21.6V108h-58.2v55.5H172v-130h21.7v57.2h58.2V33.4h21.6V163.5z"/>
	<path class="st2" d="M372.5,133.1h-50.9l-10.4,30.4h-22l47.8-130h20.5l47.2,130h-22.1L372.5,133.1z M327.8,115h38.5l-18.8-55.6
		h-0.5L327.8,115z"/>
	<path class="st2" d="M521.5,163.5h-21.6l-57.7-94.9l-0.5,0.2v94.8h-21.7v-130h21.7l57.7,94.9l0.5-0.2V33.4h21.6V163.5z"/>
	<path class="st2" d="M644.8,120.3l0.2,0.5c0.2,13.2-4,23.9-12.8,32.1c-8.8,8.2-20.7,12.4-35.7,12.4c-15.2,0-27.5-5.1-37-15.3
		s-14.2-23.3-14.2-39.2V86.1c0-15.8,4.7-28.9,14.1-39.2c9.4-10.3,21.6-15.4,36.6-15.4c15.4,0,27.5,4,36.3,12.1
		c8.8,8.1,13.1,18.9,12.9,32.6l-0.2,0.5h-21c0-8.8-2.4-15.6-7.1-20.5c-4.7-4.9-11.7-7.3-20.9-7.3c-8.9,0-15.9,3.5-21.1,10.5
		c-5.2,7-7.8,15.8-7.8,26.4v24.9c0,10.7,2.7,19.6,8,26.6c5.3,7,12.5,10.5,21.6,10.5c9,0,15.8-2.4,20.5-7.2c4.6-4.8,7-11.6,7-20.4
		L644.8,120.3L644.8,120.3z"/>
	<path class="st2" d="M744.8,105H688v41.1h66v17.4h-87.7v-130h87.1v17.4H688v36.7h56.9V105z"/>
</g>
<g>
	<path class="st3" d="M187.3,178.8h-6.9v19.3h-2.9v-19.3h-6.9v-2.3h16.8L187.3,178.8L187.3,178.8z"/>
	<path class="st3" d="M206.8,198.1h-2.9v-9.5h-10.5v9.5h-2.9v-21.6h2.9v9.8h10.5v-9.8h2.9V198.1z"/>
	<path class="st3" d="M224.9,188H215v7.7h11.4v2.3h-14.3v-21.6h14.2v2.3H215v7h9.9V188z"/>
	<path class="st3" d="M241.6,192.5h-9l-2,5.6h-3l8.3-21.6h2.5l8.2,21.6h-3L241.6,192.5z M233.4,190.1h7.3l-3.6-9.8H237L233.4,190.1z
		"/>
	<path class="st3" d="M264.1,178.8h-6.9v19.3h-2.9v-19.3h-6.9v-2.3h16.8L264.1,178.8L264.1,178.8z"/>
	<path class="st3" d="M280.1,188h-9.9v7.7h11.4v2.3h-14.3v-21.6h14.2v2.3h-11.2v7h9.9V188z"/>
	<path class="st3" d="M288,188.7v9.4h-2.9v-21.6h7.8c2.4,0,4.2,0.5,5.4,1.6c1.2,1,1.9,2.6,1.9,4.6c0,1.1-0.3,2.1-0.9,2.9
		s-1.4,1.5-2.5,2c1.2,0.4,2,1,2.6,1.9c0.5,0.9,0.8,1.9,0.8,3.2v2c0,0.7,0.1,1.3,0.2,1.8c0.1,0.5,0.4,1,0.8,1.3v0.4h-3
		c-0.4-0.3-0.6-0.8-0.7-1.5c-0.1-0.7-0.2-1.3-0.2-2v-2c0-1.2-0.3-2.1-1-2.8c-0.7-0.7-1.6-1.1-2.7-1.1L288,188.7L288,188.7z
		 M288,186.4h4.6c1.6,0,2.8-0.3,3.6-0.9c0.7-0.6,1.1-1.6,1.1-2.9c0-1.2-0.4-2.2-1.1-2.8c-0.7-0.7-1.8-1-3.3-1H288L288,186.4
		L288,186.4z"/>
	<path class="st3" d="M336.1,190.3c-0.1,2.2-0.7,4.1-1.7,5.7c-1,1.6-2.5,2.4-4.4,2.4c-0.8,0-1.5-0.3-2-0.9c-0.5-0.6-0.8-1.4-0.9-2.5
		c-0.5,1.1-1.2,2-2.1,2.5c-0.8,0.6-1.8,0.9-2.9,0.9c-1.3,0-2.3-0.6-3-1.8c-0.7-1.2-0.9-2.7-0.7-4.7c0.2-2.5,0.9-4.5,2.1-5.9
		c1.2-1.5,2.6-2.2,4.3-2.2c0.8,0,1.5,0.1,2,0.4c0.5,0.3,1.1,0.7,1.7,1.2l-0.7,8.4c-0.1,1.5,0.1,2.5,0.5,3s1,0.8,1.6,0.8
		c1.6,0,2.8-0.7,3.7-2s1.4-3.1,1.5-5.3c0.2-3.9-0.6-6.9-2.3-9.1c-1.7-2.1-4.5-3.2-8.3-3.2c-3.3,0-6.1,1.2-8.4,3.6
		c-2.3,2.4-3.5,5.5-3.7,9.4c-0.2,3.8,0.7,6.9,2.6,9.3s4.6,3.7,8.2,3.7c0.9,0,1.7-0.1,2.6-0.3c0.9-0.2,1.6-0.5,2.3-0.9l0.4,0.7
		c-0.6,0.4-1.4,0.7-2.4,1c-1,0.2-2,0.4-2.9,0.4c-3.8,0-6.7-1.2-8.7-3.7s-3-5.8-2.8-10.1c0.2-4.2,1.4-7.6,3.8-10.1
		c2.3-2.5,5.4-3.8,9.1-3.8c4,0,6.9,1.2,8.8,3.5C335.4,182.9,336.2,186.2,336.1,190.3z M319.3,191.9c-0.2,1.7,0,3,0.5,4.1
		s1.3,1.6,2.4,1.6c1.1,0,2-0.3,2.9-1s1.6-1.9,2.1-3.6l0.6-7.2c-0.3-0.4-0.7-0.7-1.2-0.9c-0.5-0.2-1-0.3-1.7-0.3
		c-1.4,0-2.6,0.6-3.7,1.9C320.2,187.6,319.5,189.5,319.3,191.9z"/>
	<path class="st3" d="M348.3,198.1v-21.6h5.7c2.2,0,4,0.5,5.2,1.4c1.2,0.9,1.9,2.3,1.9,4.2c0,1.3-0.3,2.4-1,3.2s-1.6,1.4-2.8,1.6
		c1.3,0.2,2.5,0.8,3.4,1.8c0.9,1,1.4,2.1,1.4,3.5c0,1.9-0.6,3.4-1.8,4.4c-1.2,1-2.8,1.6-4.8,1.6L348.3,198.1L348.3,198.1z
		 M349.1,186.6h5.2c2,0,3.4-0.4,4.4-1.1s1.5-1.9,1.5-3.5c0-1.5-0.5-2.7-1.6-3.5c-1.1-0.8-2.6-1.2-4.7-1.2h-4.9L349.1,186.6
		L349.1,186.6z M349.1,187.4v9.9h6.2c1.8,0,3.3-0.4,4.3-1.3s1.6-2.2,1.6-3.8c0-1.3-0.5-2.4-1.5-3.4c-1-0.9-2.4-1.4-4.2-1.4
		L349.1,187.4L349.1,187.4z"/>
	<path class="st3" d="M371.7,198.4c-1.8,0-3.4-0.7-4.7-2.2c-1.3-1.5-2-3.3-2-5.5v-0.9c0-2.3,0.6-4.2,1.9-5.7s2.9-2.3,4.8-2.3
		c1.8,0,3.3,0.6,4.4,1.8c1.1,1.2,1.7,2.8,1.7,4.8v1.2h-12v0.2v0.9c0,1.9,0.6,3.6,1.7,4.9c1.1,1.3,2.5,2,4.2,2c1.2,0,2.2-0.2,3-0.5
		c0.8-0.3,1.5-0.8,2.1-1.5l0.4,0.6c-0.6,0.7-1.4,1.2-2.3,1.6C374,198.2,372.9,198.4,371.7,198.4z M371.6,182.5c-1.6,0-2.9,0.6-4,1.7
		c-1.1,1.2-1.7,2.6-1.8,4.4l0,0.1H377v-0.5c0-1.6-0.5-3-1.5-4.1S373.2,182.5,371.6,182.5z"/>
	<path class="st3" d="M383.2,177.7v4.3h3.9v0.8h-3.9v11.1c0,1.3,0.2,2.3,0.7,2.8c0.4,0.6,1,0.8,1.8,0.8c0.3,0,0.5,0,0.7,0
		s0.5-0.1,0.9-0.1l0.1,0.7c-0.2,0.1-0.5,0.1-0.8,0.2c-0.3,0-0.6,0-0.9,0c-1.1,0-1.9-0.4-2.5-1.1c-0.6-0.7-0.8-1.8-0.8-3.4v-11.1h-3
		V182h3v-4.3L383.2,177.7L383.2,177.7z"/>
	<path class="st3" d="M392.5,177.7v4.3h3.9v0.8h-3.9v11.1c0,1.3,0.2,2.3,0.7,2.8c0.4,0.6,1,0.8,1.8,0.8c0.3,0,0.5,0,0.7,0
		c0.2,0,0.5-0.1,0.9-0.1l0.1,0.7c-0.2,0.1-0.5,0.1-0.8,0.2c-0.3,0-0.6,0-0.9,0c-1.1,0-1.9-0.4-2.5-1.1c-0.6-0.7-0.8-1.8-0.8-3.4
		v-11.1h-3V182h3v-4.3L392.5,177.7L392.5,177.7z"/>
	<path class="st3" d="M405.7,198.4c-1.8,0-3.4-0.7-4.7-2.2c-1.3-1.5-2-3.3-2-5.5v-0.9c0-2.3,0.6-4.2,1.9-5.7
		c1.3-1.5,2.9-2.3,4.8-2.3c1.8,0,3.3,0.6,4.4,1.8c1.1,1.2,1.7,2.8,1.7,4.8v1.2h-12v0.2v0.9c0,1.9,0.6,3.6,1.7,4.9
		c1.1,1.3,2.5,2,4.2,2c1.2,0,2.2-0.2,3-0.5s1.5-0.8,2.1-1.5l0.4,0.6c-0.6,0.7-1.4,1.2-2.3,1.6C408,198.2,407,198.4,405.7,198.4z
		 M405.7,182.5c-1.6,0-2.9,0.6-4,1.7s-1.7,2.6-1.8,4.4l0,0.1H411v-0.5c0-1.6-0.5-3-1.5-4.1S407.3,182.5,405.7,182.5z"/>
	<path class="st3" d="M434.6,191.6h-10.6l-2.4,6.4h-0.9l8.1-21.6h1l8.1,21.6H437L434.6,191.6z M424.4,190.8h10l-4.5-12.2l-0.4-1.2
		h-0.1l-0.4,1.2L424.4,190.8z"/>
	<path class="st3" d="M441.9,177h-0.8v-2h0.8V177z M441.9,198.1h-0.8v-16h0.8V198.1z"/>
	<path class="st3" d="M448.9,177.7v4.3h3.9v0.8h-3.9v11.1c0,1.3,0.2,2.3,0.7,2.8c0.4,0.6,1,0.8,1.8,0.8c0.3,0,0.5,0,0.7,0
		c0.2,0,0.5-0.1,0.9-0.1l0.1,0.7c-0.2,0.1-0.5,0.1-0.8,0.2c-0.3,0-0.6,0-0.9,0c-1.1,0-1.9-0.4-2.5-1.1c-0.6-0.7-0.8-1.8-0.8-3.4
		v-11.1h-3V182h3v-4.3L448.9,177.7L448.9,177.7z"/>
	<path class="st3" d="M459.6,189.9h-2.2v8.2h-0.8v-23.1h0.8v14.1h1.9l7.3-7h0.9l0,0.1l-7.4,7.2l7.9,8.7l0,0.1h-0.9L459.6,189.9z"/>
	<path class="st3" d="M476.1,198.4c-1.8,0-3.4-0.7-4.7-2.2c-1.3-1.5-2-3.3-2-5.5v-0.9c0-2.3,0.6-4.2,1.9-5.7
		c1.3-1.5,2.9-2.3,4.8-2.3c1.8,0,3.3,0.6,4.4,1.8c1.1,1.2,1.7,2.8,1.7,4.8v1.2h-12v0.2v0.9c0,1.9,0.6,3.6,1.7,4.9
		c1.1,1.3,2.5,2,4.2,2c1.2,0,2.2-0.2,3-0.5s1.5-0.8,2.1-1.5l0.4,0.6c-0.6,0.7-1.4,1.2-2.3,1.6C478.4,198.2,477.4,198.4,476.1,198.4z
		 M476.1,182.5c-1.6,0-2.9,0.6-4,1.7s-1.7,2.6-1.8,4.4l0,0.1h11.1v-0.5c0-1.6-0.5-3-1.5-4.1S477.7,182.5,476.1,182.5z"/>
	<path class="st3" d="M486.6,182l0.1,3.3c0.5-1.1,1.2-2,2.1-2.7c0.9-0.6,2.1-0.9,3.4-0.9c1.7,0,3.1,0.6,3.9,1.7
		c0.9,1.1,1.3,2.8,1.3,5.2v9.4h-0.8v-9.5c0-2.2-0.4-3.8-1.2-4.7c-0.8-0.9-1.9-1.4-3.2-1.4c-1.7,0-3,0.5-3.9,1.5
		c-0.9,1-1.4,2.4-1.6,4v10H486v-16L486.6,182L486.6,182z"/>
	<path class="st3" d="M513.5,177.7l-0.7,4.3h3.9l-0.1,0.8h-3.9l-1.7,11.1c-0.2,1.4-0.1,2.3,0.2,2.8c0.4,0.5,0.9,0.8,1.7,0.8
		c0.3,0,0.5,0,0.7,0c0.2,0,0.5-0.1,0.9-0.1l0,0.7c-0.3,0.1-0.5,0.1-0.8,0.2c-0.3,0-0.6,0-0.9,0c-1,0-1.8-0.4-2.3-1.1
		c-0.5-0.7-0.6-1.8-0.4-3.4l1.7-11.1h-3l0.1-0.8h3l0.7-4.3L513.5,177.7L513.5,177.7z"/>
	<path class="st3" d="M520.9,185.2L520.9,185.2c0.7-1.1,1.5-2,2.6-2.6c1-0.6,2.3-0.9,3.7-0.9c1.6,0,2.8,0.5,3.5,1.6s0.9,2.7,0.6,5
		l-1.5,9.8h-0.8l1.5-9.8c0.3-2.2,0.2-3.7-0.5-4.5c-0.6-0.8-1.6-1.2-2.9-1.2c-1.7,0-3.1,0.5-4.2,1.6c-1.1,1.1-1.9,2.4-2.4,4l-1.5,9.9
		h-0.8l1.2-8.2l0-0.1l2.2-14.8h0.8L520.9,185.2z"/>
	<path class="st3" d="M540.2,198.4c-1.8,0-3.2-0.7-4.4-2.2s-1.5-3.3-1.2-5.5l0.1-0.9c0.3-2.4,1.3-4.3,2.8-5.8
		c1.5-1.5,3.2-2.2,5.1-2.2c1.7,0,3.1,0.6,4.1,1.8c1,1.2,1.3,2.8,1.1,4.8l-0.2,1.2h-12c0,0,0,0.1,0,0.1c0,0,0,0.1,0,0.1l-0.1,0.9
		c-0.3,2,0,3.7,0.9,5c0.9,1.3,2.3,2,4,2c1.2,0,2.2-0.2,3.1-0.5c0.9-0.3,1.6-0.8,2.3-1.5l0.3,0.6c-0.7,0.7-1.6,1.2-2.5,1.6
		C542.5,198.2,541.4,198.4,540.2,198.4z M542.5,182.5c-1.5,0-2.9,0.6-4.2,1.8c-1.3,1.2-2.1,2.6-2.5,4.3l0,0.1h11.1l0.1-0.5
		c0.2-1.7,0-3.1-0.9-4.1C545.3,183,544.1,182.5,542.5,182.5z"/>
	<path class="st3" d="M560.6,195.1c-0.7,1-1.6,1.8-2.8,2.4c-1.2,0.6-2.6,0.9-4.1,0.9c-1.4,0-2.5-0.4-3.3-1.2s-1-1.9-0.8-3.3
		c0.2-1.4,1-2.5,2.4-3.4c1.4-0.9,3.1-1.3,5-1.3h4.6l0.4-2.3c0.2-1.4-0.1-2.4-0.8-3.2c-0.7-0.7-1.9-1.1-3.5-1.1
		c-1.4,0-2.6,0.4-3.6,1.1c-1,0.7-1.6,1.6-1.8,2.7l-0.7,0l0-0.1c0.1-1.3,0.8-2.4,1.9-3.2c1.1-0.8,2.6-1.3,4.3-1.3
		c1.7,0,3,0.4,3.9,1.3c0.9,0.9,1.3,2.1,1,3.8l-1.2,8c-0.1,0.6-0.1,1.1-0.2,1.7s0,1,0.1,1.6h-0.9c0-0.8,0-1.4,0-1.7
		c0-0.3,0-0.6,0.1-1L560.6,195.1z M553.7,197.6c1.5,0,2.9-0.4,4.1-1.1c1.2-0.7,2.2-1.7,2.9-3l0.5-3.6h-4.5c-1.6,0-3,0.4-4.3,1.2
		c-1.3,0.8-2,1.7-2.2,2.8c-0.2,1.1,0.1,2,0.7,2.7C551.6,197.2,552.5,197.6,553.7,197.6z"/>
	<path class="st3" d="M570.8,177.7l-0.7,4.3h3.9l-0.1,0.8H570l-1.7,11.1c-0.2,1.4-0.1,2.3,0.2,2.8c0.4,0.5,0.9,0.8,1.7,0.8
		c0.3,0,0.5,0,0.7,0c0.2,0,0.5-0.1,0.9-0.1l0,0.7c-0.3,0.1-0.5,0.1-0.8,0.2c-0.3,0-0.6,0-0.9,0c-1,0-1.8-0.4-2.3-1.1
		c-0.5-0.7-0.6-1.8-0.4-3.4l1.7-11.1h-3l0.1-0.8h3l0.7-4.3L570.8,177.7L570.8,177.7z"/>
	<path class="st3" d="M580.9,198.4c-1.8,0-3.2-0.7-4.4-2.2s-1.5-3.3-1.2-5.5l0.1-0.9c0.3-2.4,1.3-4.3,2.8-5.8
		c1.5-1.5,3.2-2.2,5.1-2.2c1.7,0,3.1,0.6,4.1,1.8c1,1.2,1.3,2.8,1.1,4.8l-0.2,1.2h-12c0,0,0,0.1,0,0.1c0,0,0,0.1,0,0.1l-0.1,0.9
		c-0.3,2,0,3.7,0.9,5c0.9,1.3,2.3,2,4,2c1.2,0,2.2-0.2,3.1-0.5c0.9-0.3,1.6-0.8,2.3-1.5l0.3,0.6c-0.7,0.7-1.6,1.2-2.5,1.6
		C583.2,198.2,582.1,198.4,580.9,198.4z M583.2,182.5c-1.5,0-2.9,0.6-4.2,1.8c-1.3,1.2-2.1,2.6-2.5,4.3l0,0.1h11.1l0.1-0.5
		c0.2-1.7,0-3.1-0.9-4.1C586,183,584.8,182.5,583.2,182.5z"/>
	<path class="st3" d="M600.2,182.6l-1-0.1c-1.4,0-2.6,0.5-3.7,1.4c-1.1,1-1.8,2.2-2.3,3.7l-1.6,10.4h-0.8l2.4-16h0.7l-0.3,2.8
		l-0.1,0.4l0.1,0c0.6-1.1,1.3-2,2.3-2.6c1-0.6,2.1-0.9,3.4-0.9c0.2,0,0.4,0,0.6,0.1c0.2,0,0.4,0.1,0.5,0.1L600.2,182.6z"/>
	<path class="st3" d="M618.6,195.1c-0.7,1-1.6,1.8-2.8,2.4c-1.2,0.6-2.6,0.9-4.1,0.9c-1.4,0-2.5-0.4-3.3-1.2s-1-1.9-0.8-3.3
		c0.2-1.4,1-2.5,2.4-3.4c1.4-0.9,3.1-1.3,5-1.3h4.6l0.4-2.3c0.2-1.4-0.1-2.4-0.8-3.2c-0.7-0.7-1.9-1.1-3.5-1.1
		c-1.4,0-2.6,0.4-3.6,1.1c-1,0.7-1.6,1.6-1.8,2.7l-0.7,0l0-0.1c0.1-1.3,0.8-2.4,1.9-3.2c1.1-0.8,2.6-1.3,4.3-1.3
		c1.7,0,3,0.4,3.9,1.3c0.9,0.9,1.3,2.1,1,3.8l-1.2,8c-0.1,0.6-0.1,1.1-0.2,1.7s0,1,0.1,1.6h-0.9c0-0.8,0-1.4,0-1.7
		c0-0.3,0-0.6,0.1-1L618.6,195.1z M611.8,197.6c1.5,0,2.9-0.4,4.1-1.1c1.2-0.7,2.2-1.7,2.9-3l0.5-3.6h-4.5c-1.6,0-3,0.4-4.3,1.2
		c-1.3,0.8-2,1.7-2.2,2.8c-0.2,1.1,0.1,2,0.7,2.7C609.7,197.2,610.6,197.6,611.8,197.6z"/>
	<path class="st3" d="M633.5,182.6l-1-0.1c-1.4,0-2.6,0.5-3.7,1.4c-1.1,1-1.8,2.2-2.3,3.7l-1.6,10.4h-0.8l2.4-16h0.7l-0.3,2.8
		l-0.1,0.4l0.1,0c0.6-1.1,1.3-2,2.3-2.6c1-0.6,2.1-0.9,3.4-0.9c0.2,0,0.4,0,0.6,0.1c0.2,0,0.4,0.1,0.5,0.1L633.5,182.6z"/>
	<path class="st3" d="M639.2,177.7l-0.7,4.3h3.9l-0.1,0.8h-3.9l-1.7,11.1c-0.2,1.4-0.1,2.3,0.2,2.8c0.4,0.5,0.9,0.8,1.7,0.8
		c0.3,0,0.5,0,0.7,0c0.2,0,0.5-0.1,0.9-0.1l0,0.7c-0.3,0.1-0.5,0.1-0.8,0.2c-0.3,0-0.6,0-0.9,0c-1,0-1.8-0.4-2.3-1.1
		c-0.5-0.7-0.6-1.8-0.4-3.4l1.7-11.1h-3l0.1-0.8h3l0.7-4.3L639.2,177.7L639.2,177.7z"/>
	<path class="st3" d="M654.3,194.1c0.1-0.9-0.1-1.6-0.8-2.3c-0.6-0.7-1.8-1.2-3.6-1.6c-1.8-0.4-3.2-0.9-3.9-1.6
		c-0.8-0.6-1.1-1.6-0.9-2.8c0.2-1.2,0.8-2.2,1.8-2.9s2.4-1.1,4.1-1.1c1.7,0,3,0.4,4,1.3c0.9,0.8,1.3,1.9,1.1,3.2l0,0.1h-0.7
		c0.1-1.1-0.2-2-0.9-2.7c-0.8-0.7-1.9-1.1-3.5-1.1c-1.4,0-2.6,0.3-3.5,1c-0.9,0.7-1.4,1.4-1.5,2.2c-0.1,0.9,0.1,1.6,0.7,2.2
		c0.6,0.6,1.8,1.1,3.7,1.5c1.7,0.4,3,1,3.8,1.7c0.8,0.7,1.1,1.7,1,3c-0.2,1.3-0.8,2.3-2,3.1c-1.1,0.8-2.5,1.1-4.3,1.1
		c-1.8,0-3.2-0.4-4.2-1.3s-1.3-1.9-1.1-3l0-0.1h0.7c-0.1,1.3,0.3,2.2,1.2,2.7s2.1,0.8,3.5,0.8c1.4,0,2.6-0.3,3.6-1
		S654.2,195,654.3,194.1z"/>
	<path class="st3" d="M682.4,191.4L682.4,191.4c0.1,2.3-0.6,4-2,5.2c-1.4,1.2-3.2,1.8-5.4,1.8c-2.4,0-4.3-0.9-5.7-2.6
		c-1.4-1.7-2.1-4-2.1-6.9v-3.2c0-2.8,0.7-5.1,2.1-6.9c1.4-1.7,3.3-2.6,5.7-2.6c2.3,0,4.1,0.6,5.4,1.8c1.4,1.2,2,2.9,2,5l0,0.1h-0.7
		c0-1.9-0.6-3.4-1.8-4.5c-1.2-1.1-2.9-1.6-4.9-1.6c-2.1,0-3.8,0.8-5.1,2.4c-1.3,1.6-1.9,3.7-1.9,6.3v3.3c0,2.6,0.6,4.7,1.9,6.3
		c1.3,1.6,3,2.4,5.1,2.4c2.1,0,3.7-0.5,4.9-1.5c1.2-1,1.8-2.6,1.8-4.6L682.4,191.4L682.4,191.4z"/>
	<path class="st3" d="M692.7,198.4c-1.8,0-3.4-0.7-4.7-2.2c-1.3-1.5-2-3.3-2-5.5v-0.9c0-2.3,0.6-4.2,1.9-5.7
		c1.3-1.5,2.9-2.3,4.8-2.3c1.8,0,3.3,0.6,4.4,1.8c1.1,1.2,1.7,2.8,1.7,4.8v1.2h-12v0.2v0.9c0,1.9,0.6,3.6,1.7,4.9
		c1.1,1.3,2.5,2,4.2,2c1.2,0,2.2-0.2,3-0.5s1.5-0.8,2.1-1.5l0.4,0.6c-0.6,0.7-1.4,1.2-2.3,1.6C695,198.2,693.9,198.4,692.7,198.4z
		 M692.6,182.5c-1.6,0-2.9,0.6-4,1.7s-1.7,2.6-1.8,4.4l0,0.1H698v-0.5c0-1.6-0.5-3-1.5-4.1S694.2,182.5,692.6,182.5z"/>
	<path class="st3" d="M703.2,182l0.1,3.3c0.5-1.1,1.2-2,2.1-2.7c0.9-0.6,2.1-0.9,3.4-0.9c1.7,0,3.1,0.6,3.9,1.7
		c0.9,1.1,1.3,2.8,1.3,5.2v9.4h-0.8v-9.5c0-2.2-0.4-3.8-1.2-4.7c-0.8-0.9-1.9-1.4-3.2-1.4c-1.7,0-3,0.5-3.9,1.5
		c-0.9,1-1.4,2.4-1.6,4v10h-0.8v-16L703.2,182L703.2,182z"/>
	<path class="st3" d="M720.8,177.7v4.3h3.9v0.8h-3.9v11.1c0,1.3,0.2,2.3,0.7,2.8c0.4,0.6,1,0.8,1.8,0.8c0.3,0,0.5,0,0.7,0
		c0.2,0,0.5-0.1,0.9-0.1l0.1,0.7c-0.2,0.1-0.5,0.1-0.8,0.2c-0.3,0-0.6,0-0.9,0c-1.1,0-1.9-0.4-2.5-1.1c-0.6-0.7-0.8-1.8-0.8-3.4
		v-11.1h-3V182h3v-4.3L720.8,177.7L720.8,177.7z"/>
	<path class="st3" d="M734,198.4c-1.8,0-3.4-0.7-4.7-2.2c-1.3-1.5-2-3.3-2-5.5v-0.9c0-2.3,0.6-4.2,1.9-5.7c1.3-1.5,2.9-2.3,4.8-2.3
		c1.8,0,3.3,0.6,4.4,1.8c1.1,1.2,1.7,2.8,1.7,4.8v1.2h-12v0.2v0.9c0,1.9,0.6,3.6,1.7,4.9c1.1,1.3,2.5,2,4.2,2c1.2,0,2.2-0.2,3-0.5
		s1.5-0.8,2.1-1.5l0.4,0.6c-0.6,0.7-1.4,1.2-2.3,1.6C736.3,198.2,735.2,198.4,734,198.4z M733.9,182.5c-1.6,0-2.9,0.6-4,1.7
		s-1.7,2.6-1.8,4.4l0,0.1h11.1v-0.5c0-1.6-0.5-3-1.5-4.1S735.5,182.5,733.9,182.5z"/>
	<path class="st3" d="M750.9,182.6l-1-0.1c-1.4,0-2.6,0.5-3.5,1.4s-1.5,2.1-1.7,3.7v10.5h-0.8v-16h0.7l0.1,2.8v0.5
		c0.4-1.1,1.1-2,2-2.7c0.9-0.6,2-1,3.2-1c0.2,0,0.4,0,0.6,0.1c0.2,0,0.4,0.1,0.5,0.1L750.9,182.6z"/>
</g>
<ellipse transform="matrix(0.998 -6.320005e-02 6.320005e-02 0.998 -9.8754 2.4731)" class="st4" cx="34.2" cy="157.3" rx="7.3" ry="7.7"/>
<ellipse transform="matrix(0.998 -6.320005e-02 6.320005e-02 0.998 -8.0295 2.3024)" class="st4" cx="32.4" cy="128.1" rx="7.3" ry="7.7"/>
<ellipse transform="matrix(0.998 -6.320005e-02 6.320005e-02 0.998 -4.3412 1.8491)" class="st4" cx="27.1" cy="69.5" rx="7.3" ry="7.7"/>
<ellipse transform="matrix(0.998 -6.320005e-02 6.320005e-02 0.998 -6.1871 2.0197)" class="st4" cx="28.8" cy="98.8" rx="7.3" ry="7.7"/>
<ellipse transform="matrix(0.998 -6.320005e-02 6.320005e-02 0.998 -2.4954 1.6785)" class="st4" cx="25.3" cy="40.3" rx="7.3" ry="7.7"/>
</svg>
