<?xml version="1.0" encoding="UTF-8"?>
<svg id="a" data-name="Layer 1" xmlns="http://www.w3.org/2000/svg" xmlns:xlink="http://www.w3.org/1999/xlink" viewBox="0 0 300 300">
  <defs>
    <style>
      .e {
        fill: url(#d);
      }

      .f {
        filter: url(#b);
      }
    </style>
    <filter id="b" data-name="drop-shadow-1" x="16.9326967871" y="-4.8665963207" width="283" height="303" filterUnits="userSpaceOnUse">
      <feOffset dx="6.2775030266" dy="6.2775030266"/>
      <feGaussianBlur result="c" stdDeviation="8.0710753199"/>
      <feFlood flood-color="#000" flood-opacity=".5"/>
      <feComposite in2="c" operator="in"/>
      <feComposite in="SourceGraphic"/>
    </filter>
    <linearGradient id="d" x1="152.1459227468" y1="56.5930172442" x2="152.1459227468" y2="270.8176783401" gradientUnits="userSpaceOnUse">
      <stop offset=".1046998621" stop-color="#144fc4" stop-opacity=".8299999833"/>
      <stop offset=".6917992794" stop-color="#0a1e54" stop-opacity=".941021719"/>
      <stop offset=".9923244297" stop-color="#05051a"/>
    </linearGradient>
  </defs>
  <g class="f">
    <path class="e" d="M267.6858024413,53.7701103311L37.0144921345,13.136731522c-.7443478404-.134485083-1.4259140811.4753229389-1.3810857201,1.228592663l14.6893617118,250.8042253254c.0359064772.6815662408.6367378798,1.183764302,1.3093275012,1.1030294639l197.0149541108-22.9487819682c.5560030416-.0627268641.986442884-.5021980613,1.0402478643-1.0582011029l18.9670492197-187.2130879288c.0627815996-.6187299057-.358736359-1.1747876828-.9685443809-1.2823976433ZM62.5728977504,42.5244315648c5.8111568142-.3676582428,10.8242155431,4.295586011,11.2188036438,10.4206508232.3856114814,6.1250648121-4.0086626064,11.3802185847-9.8108428013,11.7478768275-5.8022349303.3677129783-10.8242155431-4.295586011-11.2098270245-10.4206508232-.3856114814-6.1160334574,3.9996312516-11.3802185847,9.801866182-11.7478768275ZM66.1420891597,86.5207584813c5.8111568142-.3676582428,10.8242155431,4.295586011,11.2188036438,10.4206508232.3856114814,6.1250648121-4.0086626064,11.389195204-9.8108428013,11.7568534468-5.8022349303.3677129783-10.8242155431-4.3045626303-11.2098270245-10.4206508232-.3856114814-6.1250100767,3.9996859871-11.389195204,9.801866182-11.7568534468ZM69.7112805689,130.5170853977c5.8112115496-.3676582428,10.8242155431,4.3045626303,11.2188036438,10.4206508232.3856114814,6.1250648121-4.0086078709,11.389195204-9.8108428013,11.7568534468-5.8021801949.3677129783-10.8242155431-4.295586011-11.2098270245-10.4206508232-.3856114814-6.1250100767,3.9996859871-11.3891404685,9.801866182-11.7568534468ZM73.2805267136,174.5223889334c5.8111568142-.3676582428,10.8242155431,4.295586011,11.2188036438,10.4206508232.3856114814,6.1160881928-4.0086626064,11.3802185847-9.8108428013,11.7478768275-5.8022349303.3677129783-10.8242155431-4.295586011-11.2098270245-10.4206508232-.3856662169-6.1250100767,3.9996312516-11.3802185847,9.801866182-11.7478768275ZM78.2576789654,240.6872435005c-5.8022349303.3677129783-10.8242155431-4.295586011-11.2098270245-10.4206508232-.3856114814-6.1160334574,3.9996859871-11.3802185847,9.801866182-11.7478768275,5.8111568142-.3676582428,10.8242155431,4.295586011,11.2188036438,10.4206508232.3856114814,6.1250648121-4.0086626064,11.3802185847-9.8108428013,11.7478768275Z"/>
  </g>
</svg>