<svg xmlns="http://www.w3.org/2000/svg" viewBox="0 0 500 500" xmlns:bx="https://boxy-svg.com">
  <g id="hamburger" style="visibility: hidden;">
    <path d="M 280.166 250.002 L 408.377 121.787 C 416.721 113.447 416.721 99.963 408.377 91.623 C 400.037 83.283 386.553 83.283 378.213 91.623 L 249.998 219.838 L 121.787 91.623 C 113.444 83.283 99.963 83.283 91.623 91.623 C 83.28 99.963 83.28 113.447 91.623 121.787 L 219.834 250.002 L 91.623 378.217 C 83.28 386.557 83.28 400.041 91.623 408.381 C 95.78 412.541 101.244 414.631 106.705 414.631 C 112.166 414.631 117.627 412.541 121.787 408.381 L 249.998 280.166 L 378.213 408.381 C 382.373 412.541 387.834 414.631 393.295 414.631 C 398.756 414.631 404.217 412.541 408.377 408.381 C 416.721 400.041 416.721 386.557 408.377 378.217 L 280.166 250.002 Z M 280.166 250.002" style="stroke-width: 1;"></path>
  </g>
  <g id="default" transform="matrix(120.01651, 0, 0, 120.01651, -1850.228789, -1183.957294)" style="pointer-events: none;">
    <bx:title>default</bx:title>
    <path d="M 15.646 12.12 L 19.354 12.12 C 19.449 12.12 19.526 12.043 19.526 11.948 C 19.526 11.853 19.449 11.775 19.354 11.775 L 15.646 11.775 C 15.551 11.775 15.473 11.853 15.473 11.948 C 15.473 12.043 15.551 12.12 15.646 12.12 L 15.646 12.12 Z" style="stroke-width: 0.043;"></path>
    <path d="M 15.646 13.28 L 19.354 13.28 C 19.449 13.28 19.526 13.203 19.526 13.108 C 19.526 13.012 19.449 12.935 19.354 12.935 L 15.646 12.935 C 15.551 12.935 15.473 13.012 15.473 13.108 C 15.473 13.203 15.551 13.28 15.646 13.28 L 15.646 13.28 Z" style="stroke-width: 0.043;"></path>
    <path d="M 15.646 10.961 L 19.354 10.961 C 19.449 10.961 19.526 10.883 19.526 10.788 C 19.526 10.693 19.449 10.616 19.354 10.616 L 15.646 10.616 C 15.551 10.616 15.473 10.693 15.473 10.788 C 15.473 10.883 15.551 10.961 15.646 10.961 L 15.646 10.961 Z" style="stroke-width: 0.043;"></path>
  </g>
  <g id="hover" transform="matrix(120.01651, 0, 0, 120.01651, -1850.228911, -1183.957294)" >
    <bx:title>hover</bx:title>
    <path d="M 15.646 12.12 L 19.354 12.12 C 19.449 12.12 19.526 12.043 19.526 11.948 C 19.526 11.853 19.449 11.775 19.354 11.775 L 15.646 11.775 C 15.551 11.775 15.473 11.853 15.473 11.948 C 15.473 12.043 15.551 12.12 15.646 12.12 L 15.646 12.12 Z" style="stroke-width: 0.043; fill: rgba(186, 45, 45, 0.51);"></path>
    <path d="M 17.583 10.961 L 19.369 10.961 C 19.44 10.961 19.523 10.883 19.523 10.788 C 19.523 10.693 19.445 10.616 19.369 10.616 L 17.583 10.616 C 17.536 10.616 17.425 10.634 17.425 10.785 C 17.425 10.936 17.536 10.961 17.583 10.961 Z" style="stroke-width: 0.043; fill: rgba(186, 45, 45, 0.51);"></path>
    <path d="M 15.66 13.28 L 17.446 13.28 C 17.517 13.28 17.6 13.202 17.6 13.107 C 17.6 13.012 17.522 12.935 17.446 12.935 L 15.66 12.935 C 15.622 12.928 15.479 12.948 15.473 13.104 C 15.467 13.26 15.613 13.28 15.66 13.28 Z" style="stroke-width: 0.043; fill: rgba(186, 45, 45, 0.51);"></path>
  </g>
  <g id="close" transform="matrix(120.01651, 0, 0, 120.01651, -1850.218073, -1183.957311)" style="">
    <bx:title>close</bx:title>
    <path d="M 15.646 12.12 L 19.354 12.12 C 19.449 12.12 19.526 12.043 19.526 11.948 C 19.526 11.853 19.449 11.775 19.354 11.775 L 15.646 11.775 C 15.551 11.775 15.473 11.853 15.473 11.948 C 15.473 12.043 15.551 12.12 15.646 12.12 Z" style="stroke-width: 0.043; transform-box: fill-box; transform-origin: 50% 50%;" transform="matrix(0.707107, 0.707107, -0.707107, 0.707107, -0.000001, 0.000001)"></path>
    <path d="M 17.182 11.545 L 18.968 11.545 C 19.039 11.545 19.122 11.467 19.122 11.372 C 19.122 11.277 19.044 11.2 18.968 11.2 L 17.182 11.2 C 17.135 11.2 17.024 11.218 17.024 11.369 C 17.024 11.52 17.135 11.545 17.182 11.545 Z" style="stroke-width: 0.043; transform-box: fill-box; transform-origin: 50% 50%;" transform="matrix(0.707107, -0.707106, 0.707106, 0.707107, 0, 0)"></path>
    <path d="M 16.064 12.682 L 17.85 12.682 C 17.921 12.682 18.004 12.604 18.004 12.509 C 18.004 12.414 17.926 12.337 17.85 12.337 L 16.064 12.337 C 16.026 12.33 15.883 12.35 15.877 12.506 C 15.871 12.662 16.017 12.682 16.064 12.682 Z" style="stroke-width: 0.043; transform-box: fill-box; transform-origin: 50% 50%;" transform="matrix(-0.707107, 0.707107, -0.707107, -0.707107, -0.000001, -0.000001)"></path>
  </g>
</svg>